<?xml version="1.0" encoding="utf-8"?>
<!-- Generator: Adobe Illustrator 18.1.1, SVG Export Plug-In . SVG Version: 6.00 Build 0)  -->
<svg version="1.1" id="Layer_1" xmlns="http://www.w3.org/2000/svg" xmlns:xlink="http://www.w3.org/1999/xlink" x="0px" y="0px"
	 viewBox="0 0 515.9 515.9" enable-background="new 0 0 515.9 515.9" xml:space="preserve">
<g>
	<circle fill="#7985C1" cx="258" cy="258" r="258"/>
	<g>
		<path fill="#F7EB64" d="M96.7,441.1l-9.8-9.8l25.5-25.5l9.8,9.8L96.7,441.1z M147.6,389.9l-9.8-9.8l25.5-25.5l9.8,9.8L147.6,389.9
			z M198.4,339l-9.6-9.6l25.5-25.7l9.8,9.8L198.4,339z M249.6,288l-9.8-9.8l25.5-25.5l9.8,9.8L249.6,288z M300.6,237l-9.8-9.8
			l25.5-25.5l9.8,9.8L300.6,237z M351.5,186.1l-9.8-9.8l25.5-25.5l9.8,9.8L351.5,186.1z M402.5,134.9l-9.6-9.6l25.5-25.5l9.8,9.8
			L402.5,134.9z"/>
		<path fill="#FFFFFF" d="M323.7,238.3l49.3-46c13.4-13.6,21.7-36.9,12.5-45.9l-5.5-5.4c-9.1-9-32.3-0.3-45.7,13.3l-47.6,49.8
			c-34.4-13.9-92-36.9-119.7-46.3c-10.7-3.6-50.2,16-40.1,20.8c57.4,51.4,52.6,48.5,103,83.9L171.2,325
			c-10.9-4.3-23.2-9.1-30.1-11.5c-3.8-1.3-17.6,5.6-14,7.3c7.7,3.7,21.2,10.8,32.5,16.8c-8.5,10.6-12.3,20.5-5,27.8l5.5,5.4
			c7.3,7.2,17.3,3.1,27.8-5.8c6.3,11.7,14.3,26.4,18.8,34.4c1.9,3.5,8.6-10.5,7.1-14.2c-2.8-6.9-8.4-20.6-13.1-32.1l64.1-58.4
			c45.9,54.6,42,48.9,89.3,107c5.5,9.8,24.5-29.8,20.3-40.3C363.3,334.8,337.7,272.3,323.7,238.3z"/>
	</g>
</g>
<g>
	<circle fill="#7985C1" cx="802.7" cy="364" r="258"/>
	<g>
		<path fill="#FFFFFF" d="M780.9,348.9c-1.4-4.5-4.6-8.2-9-10.2l-97.4-43c-2.1-0.9-4.2-1.4-6.5-1.4c-7.3,0-13.7,5-15.6,12l-9.9,38.5
			c0,0,0,0.1,0,0.2l-25.2,98.4c-2,7.7,1.9,15.5,9.1,18.7l54.8,24.2c2.1,0.9,4.2,1.4,6.4,1.4c5.4,0,10.5-2.7,13.4-7.2l56.1-85.4v-0.1
			l21.6-32.9C781.4,358.4,782.2,353.5,780.9,348.9z M747.4,380.8l-87.5-38.6l8-31.6l97.4,42.9L747.4,380.8z"/>
		<path fill="#FFFFFF" d="M988.1,443.6l-25.2-98.4c0-0.1,0-0.1,0-0.2l-9.9-38.5c-1.8-7.1-8.2-12-15.6-12c-2.2,0-4.5,0.5-6.5,1.4
			l-97.3,42.9c-4.3,2-7.6,5.6-9,10.2c-1.3,4.6-0.6,9.4,2,13.4l21.6,32.9c0,0,0,0,0,0.1l56.1,85.4c3,4.5,8,7.2,13.4,7.2
			c2.2,0,4.4-0.5,6.4-1.4l54.8-24.2C986.2,459.1,990.1,451.3,988.1,443.6z M858,380.8l-17.9-27.3l97.4-42.9l8,31.6L858,380.8z"/>
		<path fill="#F6EB66" d="M772.3,254.5c4.5,0,8.1-3.6,8.1-8.1v-14.7c0-4.5-3.6-8.1-8.1-8.1c-4.5,0-8.1,3.6-8.1,8.1v14.7
			C764.1,250.8,767.8,254.5,772.3,254.5z"/>
		<path fill="#F6EB66" d="M772.3,302.5c4.5,0,8.1-3.6,8.1-8.1v-14.7c0-4.5-3.6-8.1-8.1-8.1c-4.5,0-8.1,3.6-8.1,8.1v14.7
			C764.1,298.9,767.8,302.5,772.3,302.5z"/>
		<path fill="#F6EB66" d="M741,271.2h14.7c4.5,0,8.1-3.6,8.1-8.1s-3.6-8.1-8.1-8.1H741c-4.5,0-8.1,3.6-8.1,8.1
			S736.5,271.2,741,271.2z"/>
		<path fill="#F6EB66" d="M788.9,271.2h14.7c4.5,0,8.1-3.6,8.1-8.1s-3.6-8.1-8.1-8.1h-14.7c-4.5,0-8.1,3.6-8.1,8.1
			S784.5,271.2,788.9,271.2z"/>
		<path fill="#F6EB66" d="M818.7,425.4c-4.5,0-8.1,3.6-8.1,8.1v14.7c0,4.5,3.6,8.1,8.1,8.1c4.5,0,8.1-3.6,8.1-8.1v-14.7
			C826.8,429.1,823.2,425.4,818.7,425.4z"/>
		<path fill="#F6EB66" d="M818.7,473.4c-4.5,0-8.1,3.6-8.1,8.1v14.7c0,4.5,3.6,8.1,8.1,8.1c4.5,0,8.1-3.6,8.1-8.1v-14.7
			C826.8,477.1,823.2,473.4,818.7,473.4z"/>
		<path fill="#F6EB66" d="M802.1,456.7h-14.7c-4.5,0-8.1,3.6-8.1,8.1c0,4.5,3.6,8.1,8.1,8.1h14.7c4.5,0,8.1-3.6,8.1-8.1
			C810.2,460.3,806.5,456.7,802.1,456.7z"/>
		<path fill="#F6EB66" d="M850.1,456.7h-14.7c-4.5,0-8.1,3.6-8.1,8.1c0,4.5,3.6,8.1,8.1,8.1h14.7c4.5,0,8.1-3.6,8.1-8.1
			C858.2,460.3,854.5,456.7,850.1,456.7z"/>
	</g>
</g>
<g>
	<circle fill="#7985C1" cx="1421.9" cy="279.5" r="258"/>
	<g id="Layer_3">
		<path fill="#F6EB66" d="M1462.5,162.1h-201.2c-13.9,0-25.1,11.3-25.1,25.1v117.3c0,13.9,11.3,25.1,25.1,25.1h15.6h1.7v34.8
			l46-34.8h137.9c13.9,0,25.1-11.3,25.1-25.1V187.2C1487.6,173.4,1476.4,162.1,1462.5,162.1z"/>
	</g>
	<g id="Layer_2">
		<path fill="#FAFAFB" d="M1588.2,245.6H1387c-13.9,0-25.1,11.3-25.1,25.1V388c0,13.9,11.3,25.1,25.1,25.1h11.3l46,34.8v-34.8h143.9
			c13.9,0,25.1-11.3,25.1-25.1V270.7C1613.4,256.8,1602.1,245.6,1588.2,245.6z"/>
	</g>
	<g id="Layer_4">
		<circle fill="#7985C1" cx="1438.9" cy="329.7" r="13"/>
		<circle fill="#7985C1" cx="1488.2" cy="329.7" r="13"/>
		<circle fill="#7985C1" cx="1536.4" cy="329.7" r="13"/>
	</g>
</g>
<g>
	<circle fill="#7985C1" cx="1463.3" cy="-447.9" r="258"/>
	<g>
		<path fill="#FFFFFF" d="M1624.6-553.3c-3.6-3.6-9.5-3.6-13.1,0l-52.9,52.9c-3.9,3.9-10.2,3.9-14,0l-1.3-1.3
			c-3.9-3.9-3.9-10.2,0-14l52.8-52.8c3.6-3.6,3.6-9.5,0-13.1c-3.6-3.6-9.5-3.6-13.1,0l-52.8,52.8c-3.9,3.9-10.2,3.9-14,0l0,0
			c-3.9-3.9-3.9-10.2,0-14l52.9-52.9c3.6-3.6,3.6-9.5,0-13.1c-3.6-3.6-9.5-3.6-13.1,0l-56.5,56.5c-8.8,8.8-13.9,19.9-14.2,30.7
			l-0.3,24.1c0,2.6-1.1,5-3,6.7L1307.1-330c-10.3,10.3-10.3,27,0,37.3c10.3,10.3,27,10.3,37.3,0l160.5-174.4c1.8-1.9,4.3-3,6.9-3
			l24.8,0.2c0.2,0,0.4,0,0.6,0c11,0,22.2-5,30.9-13.7l56.5-56.5C1628.2-543.8,1628.2-549.7,1624.6-553.3z"/>
		<path fill="#F6EB66" d="M1461.5-472.1l-73.9,68l16.5,16.5c5.1,5.1,11.3,8.4,18.1,10.2l64.2-69.8L1461.5-472.1z"/>
		<path fill="#FFFFFF" d="M1320.7-586.7l257.4,257.4c10.3,10.3,10.3,27,0,37.3l0,0c-10.3,10.3-27,10.3-37.3,0l-62.5-62.5
			c-6.4-6.4-7.8-15.9-4.3-23.7c1.9-4.1,1.6-8.8-1.6-12l-10.5-10.5c-4.1-4.1-10.8-4.1-14.9,0l0,0c-8.2,8.2-21.6,8.2-29.8,0
			l-71.1-71.1c-52.8-52.8-47.8-93-40.5-111.8C1308-589.8,1316-591.3,1320.7-586.7z"/>
	</g>
</g>
</svg>
