<?xml version="1.0" encoding="utf-8"?>
<!-- Generator: Adobe Illustrator 18.1.1, SVG Export Plug-In . SVG Version: 6.00 Build 0)  -->
<svg version="1.1" id="Layer_1" xmlns="http://www.w3.org/2000/svg" xmlns:xlink="http://www.w3.org/1999/xlink" x="0px" y="0px"
	 viewBox="0 0 515.9 515.9" enable-background="new 0 0 515.9 515.9" xml:space="preserve">
<g>
	<circle fill="#7985C1" cx="-947.4" cy="963.9" r="258"/>
	<g>
		<path fill="#F7EB64" d="M-1108.7,1147l-9.8-9.8l25.5-25.5l9.8,9.8L-1108.7,1147z M-1057.7,1095.8l-9.8-9.8l25.5-25.5l9.8,9.8
			L-1057.7,1095.8z M-1006.9,1044.9l-9.6-9.6l25.5-25.7l9.8,9.8L-1006.9,1044.9z M-955.8,993.9l-9.8-9.8l25.5-25.5l9.8,9.8
			L-955.8,993.9z M-904.8,942.9l-9.8-9.8l25.5-25.5l9.8,9.8L-904.8,942.9z M-853.8,892l-9.8-9.8l25.5-25.5l9.8,9.8L-853.8,892z
			 M-802.8,840.8l-9.6-9.6l25.5-25.5l9.8,9.8L-802.8,840.8z"/>
		<path fill="#FFFFFF" d="M-881.7,944.2l49.3-46c13.4-13.6,21.7-36.9,12.5-45.9l-5.5-5.4c-9.1-9-32.3-0.3-45.7,13.3l-47.6,49.8
			c-34.4-13.9-92-36.9-119.7-46.3c-10.7-3.6-50.2,16-40.1,20.8c57.4,51.4,52.6,48.5,103,83.9l-58.8,62.5
			c-10.9-4.3-23.2-9.1-30.1-11.5c-3.8-1.3-17.6,5.6-14,7.3c7.7,3.7,21.2,10.8,32.5,16.8c-8.5,10.6-12.3,20.5-5,27.8l5.5,5.4
			c7.3,7.2,17.3,3.1,27.8-5.8c6.3,11.7,14.3,26.4,18.8,34.4c1.9,3.5,8.6-10.5,7.1-14.2c-2.8-6.9-8.4-20.6-13.1-32.1l64.1-58.4
			c45.9,54.6,42,48.9,89.3,107c5.5,9.8,24.5-29.8,20.3-40.3C-842,1040.7-867.7,978.2-881.7,944.2z"/>
	</g>
</g>
<g>
	<circle fill="#7985C1" cx="-402.7" cy="1069.9" r="258"/>
	<g>
		<path fill="#FFFFFF" d="M-424.5,1054.8c-1.4-4.5-4.6-8.2-9-10.2l-97.4-43c-2.1-0.9-4.2-1.4-6.5-1.4c-7.3,0-13.7,5-15.6,12
			l-9.9,38.5c0,0,0,0.1,0,0.2l-25.2,98.4c-2,7.7,1.9,15.5,9.1,18.7l54.8,24.2c2.1,0.9,4.2,1.4,6.4,1.4c5.4,0,10.5-2.7,13.4-7.2
			l56.1-85.4v-0.1l21.6-32.9C-424,1064.2-423.2,1059.4-424.5,1054.8z M-458,1086.7l-87.5-38.6l8-31.6l97.4,42.9L-458,1086.7z"/>
		<path fill="#FFFFFF" d="M-217.3,1149.5l-25.2-98.4c0-0.1,0-0.1,0-0.2l-9.9-38.5c-1.8-7.1-8.2-12-15.6-12c-2.2,0-4.5,0.5-6.5,1.4
			l-97.3,42.9c-4.3,2-7.6,5.6-9,10.2c-1.3,4.6-0.6,9.4,2,13.4l21.6,32.9c0,0,0,0,0,0.1l56.1,85.4c3,4.5,8,7.2,13.4,7.2
			c2.2,0,4.4-0.5,6.4-1.4l54.8-24.2C-219.1,1165-215.3,1157.2-217.3,1149.5z M-347.4,1086.7l-17.9-27.3l97.4-42.9l8,31.6
			L-347.4,1086.7z"/>
		<path fill="#F6EB66" d="M-433.1,960.4c4.5,0,8.1-3.6,8.1-8.1v-14.7c0-4.5-3.6-8.1-8.1-8.1s-8.1,3.6-8.1,8.1v14.7
			C-441.2,956.7-437.6,960.4-433.1,960.4z"/>
		<path fill="#F6EB66" d="M-433.1,1008.4c4.5,0,8.1-3.6,8.1-8.1v-14.7c0-4.5-3.6-8.1-8.1-8.1s-8.1,3.6-8.1,8.1v14.7
			C-441.2,1004.8-437.6,1008.4-433.1,1008.4z"/>
		<path fill="#F6EB66" d="M-464.4,977.1h14.7c4.5,0,8.1-3.6,8.1-8.1c0-4.5-3.6-8.1-8.1-8.1h-14.7c-4.5,0-8.1,3.6-8.1,8.1
			C-472.5,973.5-468.9,977.1-464.4,977.1z"/>
		<path fill="#F6EB66" d="M-416.5,977.1h14.7c4.5,0,8.1-3.6,8.1-8.1c0-4.5-3.6-8.1-8.1-8.1h-14.7c-4.5,0-8.1,3.6-8.1,8.1
			C-424.6,973.5-420.9,977.1-416.5,977.1z"/>
		<path fill="#F6EB66" d="M-386.7,1131.3c-4.5,0-8.1,3.6-8.1,8.1v14.7c0,4.5,3.6,8.1,8.1,8.1s8.1-3.6,8.1-8.1v-14.7
			C-378.6,1134.9-382.2,1131.3-386.7,1131.3z"/>
		<path fill="#F6EB66" d="M-386.7,1179.3c-4.5,0-8.1,3.6-8.1,8.1v14.7c0,4.5,3.6,8.1,8.1,8.1s8.1-3.6,8.1-8.1v-14.7
			C-378.6,1183-382.2,1179.3-386.7,1179.3z"/>
		<path fill="#F6EB66" d="M-403.3,1162.6H-418c-4.5,0-8.1,3.6-8.1,8.1c0,4.5,3.6,8.1,8.1,8.1h14.7c4.5,0,8.1-3.6,8.1-8.1
			C-395.2,1166.2-398.8,1162.6-403.3,1162.6z"/>
		<path fill="#F6EB66" d="M-355.3,1162.6H-370c-4.5,0-8.1,3.6-8.1,8.1c0,4.5,3.6,8.1,8.1,8.1h14.7c4.5,0,8.1-3.6,8.1-8.1
			C-347.2,1166.2-350.8,1162.6-355.3,1162.6z"/>
	</g>
</g>
<g>
	<circle fill="#7985C1" cx="216.5" cy="985.4" r="258"/>
	<g id="Layer_3">
		<path fill="#F6EB66" d="M257.1,868H55.9c-13.9,0-25.1,11.3-25.1,25.1v117.3c0,13.9,11.3,25.1,25.1,25.1h15.6h1.7v34.8l46-34.8
			h137.9c13.9,0,25.1-11.3,25.1-25.1V893.1C282.3,879.3,271,868,257.1,868z"/>
	</g>
	<g id="Layer_2">
		<path fill="#FAFAFB" d="M382.8,951.4H181.7c-13.9,0-25.1,11.3-25.1,25.1v117.3c0,13.9,11.3,25.1,25.1,25.1h11.3l46,34.8v-34.8
			h143.9c13.9,0,25.1-11.3,25.1-25.1V976.6C408,962.7,396.7,951.4,382.8,951.4z"/>
	</g>
	<g id="Layer_4">
		<circle fill="#7985C1" cx="233.5" cy="1035.6" r="13"/>
		<circle fill="#7985C1" cx="282.8" cy="1035.6" r="13"/>
		<circle fill="#7985C1" cx="331" cy="1035.6" r="13"/>
	</g>
</g>
<g>
	<circle fill="#7985C1" cx="258" cy="258" r="258"/>
	<g>
		<path fill="#FFFFFF" d="M419.2,152.6c-3.6-3.6-9.5-3.6-13.1,0l-52.9,52.9c-3.9,3.9-10.2,3.9-14,0l-1.3-1.3c-3.9-3.9-3.9-10.2,0-14
			l52.8-52.8c3.6-3.6,3.6-9.5,0-13.1c-3.6-3.6-9.5-3.6-13.1,0L324.7,177c-3.9,3.9-10.2,3.9-14,0l0,0c-3.9-3.9-3.9-10.2,0-14
			l52.9-52.9c3.6-3.6,3.6-9.5,0-13.1c-3.6-3.6-9.5-3.6-13.1,0L294,153.5c-8.8,8.8-13.9,19.9-14.2,30.7l-0.3,24.1c0,2.6-1.1,5-3,6.7
			L101.7,375.9c-10.3,10.3-10.3,27,0,37.3c10.3,10.3,27,10.3,37.3,0l160.5-174.4c1.8-1.9,4.3-3,6.9-3l24.8,0.2c0.2,0,0.4,0,0.6,0
			c11,0,22.2-5,30.9-13.7l56.5-56.5C422.8,162.1,422.8,156.2,419.2,152.6z"/>
		<path fill="#F6EB66" d="M256.1,233.8l-73.9,68l16.5,16.5c5.1,5.1,11.3,8.4,18.1,10.2l64.2-69.8L256.1,233.8z"/>
		<path fill="#FFFFFF" d="M115.4,119.2l257.4,257.4c10.3,10.3,10.3,27,0,37.3l0,0c-10.3,10.3-27,10.3-37.3,0L273,351.4
			c-6.4-6.4-7.8-15.9-4.3-23.7c1.9-4.1,1.6-8.8-1.6-12l-10.5-10.5c-4.1-4.1-10.8-4.1-14.9,0l0,0c-8.2,8.2-21.6,8.2-29.8,0
			l-71.1-71.1c-52.8-52.8-47.8-93-40.5-111.8C102.6,116.1,110.7,114.6,115.4,119.2z"/>
	</g>
</g>
</svg>
