<?xml version="1.0" encoding="utf-8"?>
<!-- Generator: Adobe Illustrator 18.1.1, SVG Export Plug-In . SVG Version: 6.00 Build 0)  -->
<svg version="1.1" id="Layer_1" xmlns="http://www.w3.org/2000/svg" xmlns:xlink="http://www.w3.org/1999/xlink" x="0px" y="0px"
	 viewBox="0 0 515.9 515.9" enable-background="new 0 0 515.9 515.9" xml:space="preserve">
<g>
	<circle fill="#7985C1" cx="-286.8" cy="152" r="258"/>
	<g>
		<path fill="#F7EB64" d="M-448,335.1l-9.8-9.8l25.5-25.5l9.8,9.8L-448,335.1z M-397.1,283.9l-9.8-9.8l25.5-25.5l9.8,9.8
			L-397.1,283.9z M-346.3,233l-9.6-9.6l25.5-25.7l9.8,9.8L-346.3,233z M-295.1,182l-9.8-9.8l25.5-25.5l9.8,9.8L-295.1,182z
			 M-244.1,131l-9.8-9.8l25.5-25.5l9.8,9.8L-244.1,131z M-193.2,80.1l-9.8-9.8l25.5-25.5l9.8,9.8L-193.2,80.1z M-142.2,28.9
			l-9.6-9.6l25.5-25.5l9.8,9.8L-142.2,28.9z"/>
		<path fill="#FFFFFF" d="M-221,132.3l49.3-46c13.4-13.6,21.7-36.9,12.5-45.9l-5.5-5.4c-9.1-9-32.3-0.3-45.7,13.3l-47.6,49.8
			c-34.4-13.9-92-36.9-119.7-46.3c-10.7-3.6-50.2,16-40.1,20.8c57.4,51.4,52.6,48.5,103,83.9l-58.8,62.5
			c-10.9-4.3-23.2-9.1-30.1-11.5c-3.8-1.3-17.6,5.6-14,7.3c7.7,3.7,21.2,10.8,32.5,16.8c-8.5,10.6-12.3,20.5-5,27.8l5.5,5.4
			c7.3,7.2,17.3,3.1,27.8-5.8c6.3,11.7,14.3,26.4,18.8,34.4c1.9,3.5,8.6-10.5,7.1-14.2c-2.8-6.9-8.4-20.6-13.1-32.1l64.1-58.4
			c45.9,54.6,42,48.9,89.3,107c5.5,9.8,24.5-29.8,20.3-40.3C-181.4,228.8-207,166.3-221,132.3z"/>
	</g>
</g>
<g>
	<circle fill="#7985C1" cx="258" cy="258" r="258"/>
	<g>
		<path fill="#FFFFFF" d="M236.1,242.9c-1.4-4.5-4.6-8.2-9-10.2l-97.4-43c-2.1-0.9-4.2-1.4-6.5-1.4c-7.3,0-13.7,5-15.6,12l-9.9,38.5
			c0,0,0,0.1,0,0.2l-25.2,98.4c-2,7.7,1.9,15.5,9.1,18.7l54.8,24.2c2.1,0.9,4.2,1.4,6.4,1.4c5.4,0,10.5-2.7,13.4-7.2l56.1-85.4v-0.1
			l21.6-32.9C236.7,252.4,237.5,247.5,236.1,242.9z M202.7,274.8l-87.5-38.6l8-31.6l97.4,42.9L202.7,274.8z"/>
		<path fill="#FFFFFF" d="M443.4,337.6l-25.2-98.4c0-0.1,0-0.1,0-0.2l-9.9-38.5c-1.8-7.1-8.2-12-15.6-12c-2.2,0-4.5,0.5-6.5,1.4
			l-97.3,42.9c-4.3,2-7.6,5.6-9,10.2c-1.3,4.6-0.6,9.4,2,13.4l21.6,32.9c0,0,0,0,0,0.1l56.1,85.4c3,4.5,8,7.2,13.4,7.2
			c2.2,0,4.4-0.5,6.4-1.4l54.8-24.2C441.5,353.1,445.4,345.3,443.4,337.6z M313.3,274.8l-17.9-27.3l97.4-42.9l8,31.6L313.3,274.8z"
			/>
		<path fill="#F6EB66" d="M227.6,148.5c4.5,0,8.1-3.6,8.1-8.1v-14.7c0-4.5-3.6-8.1-8.1-8.1s-8.1,3.6-8.1,8.1v14.7
			C219.4,144.8,223.1,148.5,227.6,148.5z"/>
		<path fill="#F6EB66" d="M227.6,196.5c4.5,0,8.1-3.6,8.1-8.1v-14.7c0-4.5-3.6-8.1-8.1-8.1s-8.1,3.6-8.1,8.1v14.7
			C219.4,192.9,223.1,196.5,227.6,196.5z"/>
		<path fill="#F6EB66" d="M196.3,165.2h14.7c4.5,0,8.1-3.6,8.1-8.1s-3.6-8.1-8.1-8.1h-14.7c-4.5,0-8.1,3.6-8.1,8.1
			S191.8,165.2,196.3,165.2z"/>
		<path fill="#F6EB66" d="M244.2,165.2h14.7c4.5,0,8.1-3.6,8.1-8.1s-3.6-8.1-8.1-8.1h-14.7c-4.5,0-8.1,3.6-8.1,8.1
			S239.8,165.2,244.2,165.2z"/>
		<path fill="#F6EB66" d="M274,319.4c-4.5,0-8.1,3.6-8.1,8.1v14.7c0,4.5,3.6,8.1,8.1,8.1s8.1-3.6,8.1-8.1v-14.7
			C282.1,323.1,278.5,319.4,274,319.4z"/>
		<path fill="#F6EB66" d="M274,367.4c-4.5,0-8.1,3.6-8.1,8.1v14.7c0,4.5,3.6,8.1,8.1,8.1s8.1-3.6,8.1-8.1v-14.7
			C282.1,371.1,278.5,367.4,274,367.4z"/>
		<path fill="#F6EB66" d="M257.3,350.7h-14.7c-4.5,0-8.1,3.6-8.1,8.1s3.6,8.1,8.1,8.1h14.7c4.5,0,8.1-3.6,8.1-8.1
			S261.8,350.7,257.3,350.7z"/>
		<path fill="#F6EB66" d="M305.4,350.7h-14.7c-4.5,0-8.1,3.6-8.1,8.1s3.6,8.1,8.1,8.1h14.7c4.5,0,8.1-3.6,8.1-8.1
			S309.8,350.7,305.4,350.7z"/>
	</g>
</g>
<g>
	<circle fill="#7985C1" cx="877.1" cy="173.5" r="258"/>
	<g id="Layer_3">
		<path fill="#F6EB66" d="M917.8,56.1H716.6c-13.9,0-25.1,11.3-25.1,25.1v117.3c0,13.9,11.3,25.1,25.1,25.1h15.6h1.7v34.8l46-34.8
			h137.9c13.9,0,25.1-11.3,25.1-25.1V81.2C942.9,67.4,931.7,56.1,917.8,56.1z"/>
	</g>
	<g id="Layer_2">
		<path fill="#FAFAFB" d="M1043.5,139.6H842.3c-13.9,0-25.1,11.3-25.1,25.1V282c0,13.9,11.3,25.1,25.1,25.1h11.3l46,34.8v-34.8
			h143.9c13.9,0,25.1-11.3,25.1-25.1V164.7C1068.6,150.8,1057.4,139.6,1043.5,139.6z"/>
	</g>
	<g id="Layer_4">
		<circle fill="#7985C1" cx="894.2" cy="223.7" r="13"/>
		<circle fill="#7985C1" cx="943.5" cy="223.7" r="13"/>
		<circle fill="#7985C1" cx="991.7" cy="223.7" r="13"/>
	</g>
</g>
<g>
	<circle fill="#7985C1" cx="918.6" cy="-553.9" r="258"/>
	<g>
		<path fill="#FFFFFF" d="M1079.9-659.3c-3.6-3.6-9.5-3.6-13.1,0l-52.9,52.9c-3.9,3.9-10.2,3.9-14,0l-1.3-1.3
			c-3.9-3.9-3.9-10.2,0-14l52.8-52.8c3.6-3.6,3.6-9.5,0-13.1c-3.6-3.6-9.5-3.6-13.1,0l-52.8,52.8c-3.9,3.9-10.2,3.9-14,0l0,0
			c-3.9-3.9-3.9-10.2,0-14l52.9-52.9c3.6-3.6,3.6-9.5,0-13.1c-3.6-3.6-9.5-3.6-13.1,0l-56.5,56.5c-8.8,8.8-13.9,19.9-14.2,30.7
			l-0.3,24.1c0,2.6-1.1,5-3,6.7L762.4-436c-10.3,10.3-10.3,27,0,37.3c10.3,10.3,27,10.3,37.3,0l160.5-174.4c1.8-1.9,4.3-3,6.9-3
			l24.8,0.2c0.2,0,0.4,0,0.6,0c11,0,22.2-5,30.9-13.7l56.5-56.5C1083.5-649.8,1083.5-655.7,1079.9-659.3z"/>
		<path fill="#F6EB66" d="M916.8-578.1l-73.9,68l16.5,16.5c5.1,5.1,11.3,8.4,18.1,10.2l64.2-69.8L916.8-578.1z"/>
		<path fill="#FFFFFF" d="M776-692.7l257.4,257.4c10.3,10.3,10.3,27,0,37.3l0,0c-10.3,10.3-27,10.3-37.3,0l-62.5-62.5
			c-6.4-6.4-7.8-15.9-4.3-23.7c1.9-4.1,1.6-8.8-1.6-12l-10.5-10.5c-4.1-4.1-10.8-4.1-14.9,0l0,0c-8.2,8.2-21.6,8.2-29.8,0
			l-71.1-71.1c-52.8-52.8-47.8-93-40.5-111.8C763.3-695.8,771.3-697.3,776-692.7z"/>
	</g>
</g>
</svg>
