<?xml version="1.0" encoding="utf-8"?>
<!-- Generator: Adobe Illustrator 18.1.1, SVG Export Plug-In . SVG Version: 6.00 Build 0)  -->
<svg version="1.1" id="Layer_1" xmlns="http://www.w3.org/2000/svg" xmlns:xlink="http://www.w3.org/1999/xlink" x="0px" y="0px"
	 viewBox="0 0 515.9 515.9" enable-background="new 0 0 515.9 515.9" xml:space="preserve">
<g>
	<circle fill="#7985C1" cx="-905.9" cy="236.4" r="258"/>
	<g>
		<path fill="#F7EB64" d="M-1067.2,419.6l-9.8-9.8l25.5-25.5l9.8,9.8L-1067.2,419.6z M-1016.3,368.4l-9.8-9.8l25.5-25.5l9.8,9.8
			L-1016.3,368.4z M-965.5,317.4l-9.6-9.6l25.5-25.7l9.8,9.8L-965.5,317.4z M-914.3,266.5l-9.8-9.8l25.5-25.5l9.8,9.8L-914.3,266.5z
			 M-863.3,215.5l-9.8-9.8l25.5-25.5l9.8,9.8L-863.3,215.5z M-812.4,164.5l-9.8-9.8l25.5-25.5l9.8,9.8L-812.4,164.5z M-761.4,113.4
			l-9.6-9.6l25.5-25.5l9.8,9.8L-761.4,113.4z"/>
		<path fill="#FFFFFF" d="M-840.2,216.7l49.3-46c13.4-13.6,21.7-36.9,12.5-45.9l-5.5-5.4c-9.1-9-32.3-0.3-45.7,13.3l-47.6,49.8
			c-34.4-13.9-92-36.9-119.7-46.3c-10.7-3.6-50.2,16-40.1,20.8c57.4,51.4,52.6,48.5,103,83.9l-58.8,62.5
			c-10.9-4.3-23.2-9.1-30.1-11.5c-3.8-1.3-17.6,5.6-14,7.3c7.7,3.7,21.2,10.8,32.5,16.8c-8.5,10.6-12.3,20.5-5,27.8l5.5,5.4
			c7.3,7.2,17.3,3.1,27.8-5.8c6.3,11.7,14.3,26.4,18.8,34.4c1.9,3.5,8.6-10.5,7.1-14.2c-2.8-6.9-8.4-20.6-13.1-32.1l64.1-58.4
			c45.9,54.6,42,48.9,89.3,107c5.5,9.8,24.5-29.8,20.3-40.3C-800.6,313.3-826.2,250.7-840.2,216.7z"/>
	</g>
</g>
<g>
	<circle fill="#7985C1" cx="-361.2" cy="342.4" r="258"/>
	<g>
		<path fill="#FFFFFF" d="M-383,327.4c-1.4-4.5-4.6-8.2-9-10.2l-97.4-43c-2.1-0.9-4.2-1.4-6.5-1.4c-7.3,0-13.7,5-15.6,12l-9.9,38.5
			c0,0,0,0.1,0,0.2l-25.2,98.4c-2,7.7,1.9,15.5,9.1,18.7l54.8,24.2c2.1,0.9,4.2,1.4,6.4,1.4c5.4,0,10.5-2.7,13.4-7.2l56.1-85.4v-0.1
			l21.6-32.9C-382.5,336.8-381.7,331.9-383,327.4z M-416.5,359.2l-87.5-38.6l8-31.6l97.4,42.9L-416.5,359.2z"/>
		<path fill="#FFFFFF" d="M-175.8,422.1l-25.2-98.4c0-0.1,0-0.1,0-0.2l-9.9-38.5c-1.8-7.1-8.2-12-15.6-12c-2.2,0-4.5,0.5-6.5,1.4
			l-97.3,42.9c-4.3,2-7.6,5.6-9,10.2c-1.3,4.6-0.6,9.4,2,13.4l21.6,32.9c0,0,0,0,0,0.1l56.1,85.4c3,4.5,8,7.2,13.4,7.2
			c2.2,0,4.4-0.5,6.4-1.4l54.8-24.2C-177.7,437.6-173.8,429.7-175.8,422.1z M-305.9,359.2l-17.9-27.3l97.4-42.9l8,31.6L-305.9,359.2
			z"/>
		<path fill="#F6EB66" d="M-391.6,232.9c4.5,0,8.1-3.6,8.1-8.1v-14.7c0-4.5-3.6-8.1-8.1-8.1c-4.5,0-8.1,3.6-8.1,8.1v14.7
			C-399.8,229.3-396.1,232.9-391.6,232.9z"/>
		<path fill="#F6EB66" d="M-391.6,280.9c4.5,0,8.1-3.6,8.1-8.1v-14.7c0-4.5-3.6-8.1-8.1-8.1c-4.5,0-8.1,3.6-8.1,8.1v14.7
			C-399.8,277.3-396.1,280.9-391.6,280.9z"/>
		<path fill="#F6EB66" d="M-422.9,249.6h14.7c4.5,0,8.1-3.6,8.1-8.1c0-4.5-3.6-8.1-8.1-8.1h-14.7c-4.5,0-8.1,3.6-8.1,8.1
			C-431.1,246-427.4,249.6-422.9,249.6z"/>
		<path fill="#F6EB66" d="M-375,249.6h14.7c4.5,0,8.1-3.6,8.1-8.1c0-4.5-3.6-8.1-8.1-8.1H-375c-4.5,0-8.1,3.6-8.1,8.1
			C-383.1,246-379.4,249.6-375,249.6z"/>
		<path fill="#F6EB66" d="M-345.2,403.8c-4.5,0-8.1,3.6-8.1,8.1v14.7c0,4.5,3.6,8.1,8.1,8.1c4.5,0,8.1-3.6,8.1-8.1V412
			C-337.1,407.5-340.7,403.8-345.2,403.8z"/>
		<path fill="#F6EB66" d="M-345.2,451.9c-4.5,0-8.1,3.6-8.1,8.1v14.7c0,4.5,3.6,8.1,8.1,8.1c4.5,0,8.1-3.6,8.1-8.1V460
			C-337.1,455.5-340.7,451.9-345.2,451.9z"/>
		<path fill="#F6EB66" d="M-361.8,435.1h-14.7c-4.5,0-8.1,3.6-8.1,8.1s3.6,8.1,8.1,8.1h14.7c4.5,0,8.1-3.6,8.1-8.1
			S-357.4,435.1-361.8,435.1z"/>
		<path fill="#F6EB66" d="M-313.8,435.1h-14.7c-4.5,0-8.1,3.6-8.1,8.1s3.6,8.1,8.1,8.1h14.7c4.5,0,8.1-3.6,8.1-8.1
			S-309.4,435.1-313.8,435.1z"/>
	</g>
</g>
<g>
	<circle fill="#7985C1" cx="258" cy="258" r="258"/>
	<g id="Layer_3">
		<path fill="#F6EB66" d="M298.6,140.5H97.4c-13.9,0-25.1,11.3-25.1,25.1V283c0,13.9,11.3,25.1,25.1,25.1H113h1.7V343l46-34.8h137.9
			c13.9,0,25.1-11.3,25.1-25.1V165.7C323.7,151.8,312.5,140.5,298.6,140.5z"/>
	</g>
	<g id="Layer_2">
		<path fill="#FAFAFB" d="M424.3,224H223.1c-13.9,0-25.1,11.3-25.1,25.1v117.3c0,13.9,11.3,25.1,25.1,25.1h11.3l46,34.8v-34.8h143.9
			c13.9,0,25.1-11.3,25.1-25.1V249.1C449.5,235.2,438.2,224,424.3,224z"/>
	</g>
	<g id="Layer_4">
		<circle fill="#7985C1" cx="275" cy="308.1" r="13"/>
		<circle fill="#7985C1" cx="324.3" cy="308.1" r="13"/>
		<circle fill="#7985C1" cx="372.5" cy="308.1" r="13"/>
	</g>
</g>
<g>
	<circle fill="#7985C1" cx="299.4" cy="-469.5" r="258"/>
	<g>
		<path fill="#FFFFFF" d="M460.7-574.9c-3.6-3.6-9.5-3.6-13.1,0L394.6-522c-3.9,3.9-10.2,3.9-14,0l-1.3-1.3c-3.9-3.9-3.9-10.2,0-14
			l52.8-52.8c3.6-3.6,3.6-9.5,0-13.1c-3.6-3.6-9.5-3.6-13.1,0l-52.8,52.8c-3.9,3.9-10.2,3.9-14,0l0,0c-3.9-3.9-3.9-10.2,0-14
			l52.9-52.9c3.6-3.6,3.6-9.5,0-13.1c-3.6-3.6-9.5-3.6-13.1,0L335.4-574c-8.8,8.8-13.9,19.9-14.2,30.7l-0.3,24.1c0,2.6-1.1,5-3,6.7
			L143.2-351.6c-10.3,10.3-10.3,27,0,37.3c10.3,10.3,27,10.3,37.3,0L341-488.7c1.8-1.9,4.3-3,6.9-3l24.8,0.2c0.2,0,0.4,0,0.6,0
			c11,0,22.2-5,30.9-13.7l56.5-56.5C464.3-565.4,464.3-571.2,460.7-574.9z"/>
		<path fill="#F6EB66" d="M297.6-493.7l-73.9,68l16.5,16.5c5.1,5.1,11.3,8.4,18.1,10.2l64.2-69.8L297.6-493.7z"/>
		<path fill="#FFFFFF" d="M156.8-608.2l257.4,257.4c10.3,10.3,10.3,27,0,37.3l0,0c-10.3,10.3-27,10.3-37.3,0L314.5-376
			c-6.4-6.4-7.8-15.9-4.3-23.7c1.9-4.1,1.6-8.8-1.6-12l-10.5-10.5c-4.1-4.1-10.8-4.1-14.9,0l0,0c-8.2,8.2-21.6,8.2-29.8,0
			l-71.1-71.1c-52.8-52.8-47.8-93-40.5-111.8C144.1-611.4,152.2-612.9,156.8-608.2z"/>
	</g>
</g>
</svg>
